<svg width="214" height="62" viewBox="0 0 214 62" version="1.1" xmlns="http://www.w3.org/2000/svg" xmlns:xlink="http://www.w3.org/1999/xlink">
<title>Group</title>
<desc>Created using Figma</desc>
<g id="Canvas" transform="translate(5 847)">
<g id="Group">
<g id="fake dreams">
<use xlink:href="#path0_fill" transform="translate(49 -848)" fill="#F7F2F2"/>
</g>
<mask id="mask0_alpha" mask-type="alpha">
<g id="Vector (1) (1)">
<g id="Group">
<g id="Vector">
<use xlink:href="#path1_fill" transform="matrix(0.1 0 0 -0.1 -5 -794.322)"/>
</g>
<g id="Vector">
<use xlink:href="#path2_fill" transform="matrix(0.1 0 0 -0.1 43.7716 -819.229)"/>
</g>
<g id="Vector">
<use xlink:href="#path3_fill" transform="matrix(0.1 0 0 -0.1 43.2823 -810.627)"/>
</g>
<g id="Vector">
<use xlink:href="#path4_fill" transform="matrix(0.1 0 0 -0.1 42.5204 -815.181)"/>
</g>
<g id="Vector">
<use xlink:href="#path5_fill" transform="matrix(0.1 0 0 -0.1 44.4268 -813.484)"/>
</g>
<g id="Vector">
<use xlink:href="#path6_fill" transform="matrix(0.1 0 0 -0.1 8.81397 -805.523)"/>
</g>
<g id="Vector">
<use xlink:href="#path7_fill" transform="matrix(0.1 0 0 -0.1 -0.775881 -795.847)"/>
</g>
<g id="Vector">
<use xlink:href="#path8_fill" transform="matrix(0.1 0 0 -0.1 9.12793 -803.973)"/>
</g>
<g id="Vector">
<use xlink:href="#path9_fill" transform="matrix(0.1 0 0 -0.1 18.342 -799.963)"/>
</g>
<g id="Vector">
<use xlink:href="#path10_fill" transform="matrix(0.1 0 0 -0.1 10.6923 -797.174)"/>
</g>
<g id="Vector">
<use xlink:href="#path4_fill" transform="matrix(0.1 0 0 -0.1 1.39167 -798.68)"/>
</g>
<g id="Vector">
<use xlink:href="#path11_fill" transform="matrix(0.1 0 0 -0.1 3.82281 -789.546)"/>
</g>
<g id="Vector">
<use xlink:href="#path12_fill" transform="matrix(0.1 0 0 -0.1 11.0685 -780)"/>
</g>
<g id="Vector">
<use xlink:href="#path13_fill" transform="matrix(0.1 0 0 -0.1 4.41854 -796.19)"/>
</g>
</g>
</g>
</mask>
<g id="Ellipse" mask="url(#mask0_alpha)">
<use xlink:href="#path14_fill" transform="translate(-5 -862)" fill="#EBDFDF"/>
</g>
</g>
</g>
<defs>
<path id="path0_fill" d="M 25.7076 28.656L 25.7076 26.352C 25.7076 25.328 25.8196 24.456 26.0436 23.736C 26.2836 23 26.6036 22.408 27.0036 21.96C 27.3876 21.512 27.8276 21.184 28.3236 20.976C 28.8356 20.768 29.3556 20.664 29.8836 20.664C 30.5076 20.664 31.0516 20.824 31.5156 21.144C 31.9956 21.448 32.2356 21.768 32.2356 22.104C 32.2356 22.392 32.1316 22.608 31.9236 22.752C 31.7316 22.896 31.5396 22.968 31.3476 22.968C 31.1876 22.968 31.0116 22.928 30.8196 22.848C 30.6276 22.768 30.5076 22.632 30.4596 22.44C 30.3636 22.2 30.2276 22 30.0516 21.84C 29.8916 21.664 29.6196 21.576 29.2356 21.576C 28.6916 21.576 28.2676 21.848 27.9636 22.392C 27.6756 22.92 27.5316 23.736 27.5316 24.84L 27.5316 28.296C 27.5316 28.536 27.5636 28.688 27.6276 28.752C 27.6916 28.8 27.8436 28.824 28.0836 28.824L 30.3636 28.824C 30.4916 28.824 30.5876 28.872 30.6516 28.968C 30.7316 29.048 30.7716 29.192 30.7716 29.4C 30.7716 29.624 30.7236 29.776 30.6276 29.856C 30.5316 29.936 30.4356 29.976 30.3396 29.976L 28.1316 29.976C 27.8916 29.976 27.7396 30.008 27.6756 30.072C 27.6116 30.136 27.5796 30.28 27.5796 30.504L 27.5796 38.184C 27.5796 38.568 27.6116 38.848 27.6756 39.024C 27.7556 39.2 27.8916 39.312 28.0836 39.36C 28.2276 39.408 28.4036 39.448 28.6116 39.48C 28.8196 39.528 29.0116 39.552 29.1876 39.552C 29.3156 39.568 29.4116 39.6 29.4756 39.648C 29.5396 39.712 29.5716 39.824 29.5716 39.984C 29.5716 40.144 29.5236 40.24 29.4276 40.272C 29.3476 40.32 29.2516 40.344 29.1396 40.344C 29.0916 40.344 28.9476 40.344 28.7076 40.344C 28.4836 40.344 28.2276 40.336 27.9396 40.32C 27.6676 40.32 27.4036 40.312 27.1476 40.296C 26.9076 40.296 26.7476 40.296 26.6676 40.296C 26.5716 40.296 26.3956 40.296 26.1396 40.296C 25.8836 40.312 25.6196 40.32 25.3476 40.32C 25.0756 40.336 24.8276 40.344 24.6036 40.344C 24.3796 40.344 24.2436 40.344 24.1956 40.344C 24.0676 40.344 23.9636 40.32 23.8836 40.272C 23.8036 40.24 23.7636 40.144 23.7636 39.984C 23.7636 39.824 23.7876 39.712 23.8356 39.648C 23.8996 39.6 24.0036 39.568 24.1476 39.552C 24.3076 39.552 24.4916 39.528 24.6996 39.48C 24.9076 39.448 25.0916 39.408 25.2516 39.36C 25.4436 39.312 25.5716 39.2 25.6356 39.024C 25.7156 38.848 25.7556 38.568 25.7556 38.184L 25.7556 30.528C 25.7556 30.304 25.7236 30.16 25.6596 30.096C 25.5956 30.032 25.4436 30 25.2036 30L 24.4836 30C 24.3556 30.016 24.2516 30.016 24.1716 30C 24.1076 29.968 24.0676 29.88 24.0516 29.736C 24.0516 29.672 24.0516 29.616 24.0516 29.568C 24.0516 29.52 24.0676 29.488 24.0996 29.472C 24.1156 29.44 24.1396 29.424 24.1716 29.424C 24.2196 29.408 24.2836 29.384 24.3636 29.352C 24.4596 29.336 24.5556 29.312 24.6516 29.28C 24.7476 29.232 24.8436 29.192 24.9396 29.16C 25.0356 29.112 25.1316 29.064 25.2276 29.016C 25.3236 28.968 25.4276 28.92 25.5396 28.872C 25.5876 28.856 25.6196 28.832 25.6356 28.8C 25.6676 28.752 25.6916 28.704 25.7076 28.656ZM 37.0005 39.144C 37.5925 39.144 38.1605 38.976 38.7045 38.64C 39.2485 38.288 39.6645 37.984 39.9525 37.728C 40.0805 37.632 40.1605 37.536 40.1925 37.44C 40.2405 37.344 40.2645 37.2 40.2645 37.008L 40.2645 34.68C 40.2645 34.456 40.2085 34.312 40.0965 34.248C 39.9845 34.168 39.8245 34.152 39.6165 34.2C 39.3285 34.312 39.0085 34.44 38.6565 34.584C 38.3045 34.728 37.9525 34.88 37.6005 35.04C 37.2485 35.216 36.9125 35.392 36.5925 35.568C 36.2885 35.744 36.0325 35.912 35.8245 36.072C 35.6325 36.216 35.4885 36.424 35.3925 36.696C 35.2965 36.968 35.2485 37.256 35.2485 37.56C 35.2485 38.088 35.3925 38.488 35.6805 38.76C 35.9685 39.016 36.4085 39.144 37.0005 39.144ZM 42.2085 30.768L 42.2085 37.344C 42.2085 37.792 42.2645 38.152 42.3765 38.424C 42.4885 38.68 42.7765 38.808 43.2405 38.808C 43.4325 38.808 43.6005 38.752 43.7445 38.64C 43.8885 38.512 43.9845 38.392 44.0325 38.28C 44.1285 38.104 44.2325 38.056 44.3445 38.136C 44.4725 38.2 44.5125 38.36 44.4645 38.616C 44.3685 39.048 44.1205 39.472 43.7205 39.888C 43.3365 40.32 42.8405 40.536 42.2325 40.536C 41.6565 40.536 41.2325 40.352 40.9605 39.984C 40.6885 39.632 40.5205 39.256 40.4565 38.856C 40.4085 38.712 40.3605 38.624 40.3125 38.592C 40.2645 38.544 40.1765 38.584 40.0485 38.712C 39.7765 38.904 39.4725 39.112 39.1365 39.336C 38.8165 39.56 38.4725 39.776 38.1045 39.984C 37.7205 40.176 37.3125 40.336 36.8805 40.464C 36.4645 40.592 36.0325 40.656 35.5845 40.656C 34.7525 40.656 34.1125 40.432 33.6645 39.984C 33.2165 39.552 32.9925 38.968 32.9925 38.232C 32.9925 37.688 33.1125 37.2 33.3525 36.768C 33.6085 36.32 33.9445 35.952 34.3605 35.664C 34.6485 35.472 35.0085 35.272 35.4405 35.064C 35.8725 34.856 36.3445 34.648 36.8565 34.44C 37.3685 34.248 37.8885 34.056 38.4165 33.864C 38.9605 33.656 39.4725 33.464 39.9525 33.288C 40.0805 33.24 40.1605 33.152 40.1925 33.024C 40.2405 32.896 40.2645 32.712 40.2645 32.472L 40.2645 31.104C 40.2645 30.464 40.0645 30.008 39.6645 29.736C 39.2805 29.464 38.7525 29.328 38.0805 29.328C 37.1365 29.328 36.4565 29.576 36.0405 30.072C 35.6245 30.552 35.4165 31.056 35.4165 31.584C 35.4645 31.92 35.3845 32.16 35.1765 32.304C 34.9685 32.448 34.6885 32.568 34.3365 32.664C 33.9525 32.776 33.6645 32.792 33.4725 32.712C 33.2805 32.632 33.1845 32.48 33.1845 32.256C 33.1685 31.92 33.2165 31.568 33.3285 31.2C 33.4405 30.816 33.6245 30.496 33.8805 30.24C 34.4885 29.632 35.2965 29.152 36.3045 28.8C 37.3285 28.448 38.3605 28.272 39.4005 28.272C 40.3445 28.272 41.0485 28.496 41.5125 28.944C 41.9765 29.376 42.2085 29.984 42.2085 30.768ZM 52.9318 29.424C 52.7878 29.424 52.6838 29.408 52.6198 29.376C 52.5718 29.328 52.5478 29.216 52.5478 29.04C 52.5478 28.88 52.5798 28.784 52.6438 28.752C 52.7238 28.72 52.8278 28.704 52.9558 28.704C 53.0038 28.704 53.1238 28.712 53.3158 28.728C 53.5238 28.728 53.7398 28.728 53.9638 28.728C 54.2038 28.728 54.4358 28.728 54.6598 28.728C 54.8838 28.728 55.0438 28.728 55.1398 28.728C 55.2198 28.728 55.3478 28.728 55.5238 28.728C 55.6998 28.728 55.8838 28.728 56.0758 28.728C 56.2678 28.728 56.4438 28.728 56.6038 28.728C 56.7638 28.712 56.8678 28.704 56.9158 28.704C 57.0278 28.704 57.1238 28.728 57.2038 28.776C 57.2998 28.808 57.3478 28.904 57.3478 29.064C 57.3478 29.24 57.3158 29.352 57.2518 29.4C 57.2038 29.432 57.1158 29.448 56.9878 29.448C 56.8278 29.464 56.6518 29.496 56.4598 29.544C 56.2838 29.592 56.1238 29.64 55.9798 29.688C 55.7078 29.816 55.4278 29.976 55.1398 30.168C 54.8678 30.36 54.5798 30.576 54.2758 30.816C 54.0998 30.96 53.8598 31.16 53.5558 31.416C 53.2518 31.672 52.9398 31.928 52.6198 32.184C 52.3158 32.456 52.0278 32.704 51.7558 32.928C 51.4838 33.136 51.2918 33.28 51.1798 33.36C 51.0998 33.408 51.0518 33.472 51.0358 33.552C 51.0198 33.616 51.0438 33.696 51.1078 33.792L 55.1398 38.136C 55.3798 38.424 55.5958 38.656 55.7878 38.832C 55.9958 39.008 56.2038 39.16 56.4118 39.288C 56.5398 39.384 56.6918 39.456 56.8678 39.504C 57.0598 39.552 57.2438 39.576 57.4198 39.576C 57.5478 39.592 57.6438 39.624 57.7078 39.672C 57.7718 39.736 57.8038 39.848 57.8038 40.008C 57.8038 40.168 57.7558 40.264 57.6598 40.296C 57.5798 40.328 57.4838 40.344 57.3718 40.344C 57.3238 40.344 57.1878 40.344 56.9638 40.344C 56.7558 40.344 56.5318 40.336 56.2918 40.32C 56.0358 40.32 55.7958 40.312 55.5718 40.296C 55.3478 40.296 55.1958 40.296 55.1158 40.296C 55.0198 40.296 54.8438 40.296 54.5878 40.296C 54.3478 40.312 54.0998 40.32 53.8438 40.32C 53.5718 40.336 53.3238 40.344 53.0998 40.344C 52.8918 40.344 52.7638 40.344 52.7158 40.344C 52.5878 40.344 52.4838 40.328 52.4038 40.296C 52.3398 40.264 52.3078 40.168 52.3078 40.008C 52.3078 39.848 52.3318 39.736 52.3798 39.672C 52.4278 39.624 52.5238 39.592 52.6678 39.576C 52.7638 39.576 52.8518 39.576 52.9318 39.576C 53.0118 39.576 53.0918 39.568 53.1718 39.552C 53.2358 39.536 53.2918 39.52 53.3398 39.504C 53.4038 39.488 53.4518 39.464 53.4838 39.432C 53.5318 39.368 53.5318 39.264 53.4838 39.12C 53.4358 38.992 53.3078 38.816 53.0998 38.592L 49.8358 34.992C 49.7718 34.944 49.6758 34.912 49.5478 34.896C 49.4198 34.88 49.3158 34.888 49.2358 34.92C 49.1558 34.968 49.1158 34.992 49.1158 34.992C 49.1158 34.992 49.1238 34.976 49.1398 34.944C 49.1558 34.928 49.1638 34.92 49.1638 34.92C 49.1798 34.904 49.1638 34.92 49.1158 34.968C 49.0358 35.016 48.9798 35.072 48.9478 35.136C 48.9158 35.2 48.8998 35.28 48.8998 35.376L 48.8998 38.352C 48.8998 38.656 48.9398 38.896 49.0198 39.072C 49.0998 39.248 49.2358 39.36 49.4278 39.408C 49.5878 39.472 49.7478 39.512 49.9078 39.528C 50.0678 39.56 50.2438 39.576 50.4358 39.576C 50.5638 39.592 50.6518 39.624 50.6998 39.672C 50.7638 39.736 50.7958 39.848 50.7958 40.008C 50.7958 40.168 50.7558 40.264 50.6758 40.296C 50.5958 40.328 50.4998 40.344 50.3878 40.344C 50.3238 40.344 50.1798 40.344 49.9558 40.344C 49.7478 40.344 49.5078 40.336 49.2358 40.32C 48.9798 40.32 48.7318 40.312 48.4918 40.296C 48.2518 40.296 48.0838 40.296 47.9878 40.296C 47.8918 40.296 47.7238 40.296 47.4838 40.296C 47.2598 40.312 47.0198 40.32 46.7638 40.32C 46.5078 40.336 46.2678 40.344 46.0438 40.344C 45.8358 40.344 45.7078 40.344 45.6598 40.344C 45.5318 40.344 45.4278 40.328 45.3478 40.296C 45.2678 40.264 45.2278 40.168 45.2278 40.008C 45.2278 39.848 45.2518 39.736 45.2998 39.672C 45.3638 39.624 45.4678 39.592 45.6118 39.576C 45.6918 39.576 45.7718 39.568 45.8518 39.552C 45.9478 39.552 46.0358 39.544 46.1158 39.528C 46.2118 39.528 46.2998 39.512 46.3798 39.48C 46.4758 39.464 46.5638 39.44 46.6438 39.408C 46.8038 39.36 46.9238 39.248 47.0038 39.072C 47.0838 38.896 47.1238 38.656 47.1238 38.352L 47.1238 23.52C 47.1238 23.232 47.0038 23.04 46.7638 22.944C 46.5238 22.832 46.2518 22.744 45.9478 22.68C 45.8838 22.68 45.8278 22.672 45.7798 22.656C 45.7318 22.64 45.6838 22.624 45.6358 22.608C 45.6038 22.576 45.5798 22.544 45.5638 22.512C 45.5478 22.464 45.5398 22.4 45.5398 22.32C 45.5398 22.256 45.5398 22.208 45.5398 22.176C 45.5558 22.128 45.5798 22.096 45.6118 22.08C 45.6438 22.048 45.6758 22.032 45.7078 22.032C 45.7558 22.016 45.8198 21.992 45.8998 21.96C 46.3638 21.864 46.7958 21.736 47.1958 21.576C 47.6118 21.4 48.0278 21.192 48.4438 20.952C 48.5878 20.856 48.7238 20.832 48.8518 20.88C 48.9798 20.928 49.0358 21.048 49.0198 21.24C 48.9718 21.64 48.9478 22.088 48.9478 22.584C 48.9478 23.064 48.9478 23.424 48.9478 23.664L 48.9478 33.552C 48.9478 33.744 48.9958 33.856 49.0918 33.888C 49.1878 33.92 49.3158 33.888 49.4758 33.792C 50.1958 33.232 50.8598 32.704 51.4678 32.208C 52.0758 31.712 52.7558 31.136 53.5078 30.48C 53.9398 30.08 54.1318 29.808 54.0838 29.664C 54.0358 29.504 53.6518 29.424 52.9318 29.424ZM 61.3243 32.472C 61.3243 32.6 61.3483 32.688 61.3963 32.736C 61.4443 32.784 61.5323 32.808 61.6603 32.808C 62.0443 32.808 62.4843 32.808 62.9803 32.808C 63.4923 32.808 64.0043 32.808 64.5163 32.808C 65.0123 32.792 65.4843 32.784 65.9323 32.784C 66.3803 32.768 66.7483 32.744 67.0363 32.712C 67.3883 32.68 67.6043 32.56 67.6843 32.352C 67.7643 32.128 67.8043 31.952 67.8043 31.824C 67.8043 31.136 67.5643 30.56 67.0843 30.096C 66.6203 29.616 65.9483 29.376 65.0683 29.376C 64.4923 29.376 63.9643 29.472 63.4843 29.664C 63.0203 29.856 62.6283 30.104 62.3083 30.408C 61.9883 30.712 61.7403 31.048 61.5643 31.416C 61.3883 31.784 61.3083 32.136 61.3243 32.472ZM 61.2523 34.2C 61.3163 35.096 61.4843 35.84 61.7563 36.432C 62.0283 37.008 62.3723 37.472 62.7883 37.824C 63.2203 38.176 63.7083 38.424 64.2523 38.568C 64.7963 38.712 65.3723 38.784 65.9803 38.784C 66.7483 38.784 67.3883 38.664 67.9003 38.424C 68.4123 38.184 68.8443 37.864 69.1963 37.464C 69.2603 37.352 69.3243 37.28 69.3883 37.248C 69.4523 37.2 69.5083 37.184 69.5563 37.2C 69.6043 37.248 69.6363 37.312 69.6523 37.392C 69.6843 37.472 69.6763 37.568 69.6283 37.68C 69.3083 38.384 68.7243 39.016 67.8763 39.576C 67.0283 40.136 66.0123 40.416 64.8283 40.416C 64.0123 40.416 63.2603 40.272 62.5723 39.984C 61.8843 39.712 61.2843 39.32 60.7723 38.808C 60.2603 38.28 59.8603 37.656 59.5723 36.936C 59.2843 36.216 59.1403 35.416 59.1403 34.536C 59.1403 33.512 59.3163 32.608 59.6683 31.824C 60.0363 31.04 60.5083 30.376 61.0843 29.832C 61.6603 29.304 62.3083 28.904 63.0283 28.632C 63.7643 28.36 64.5003 28.224 65.2363 28.224C 66.1483 28.224 66.9083 28.392 67.5163 28.728C 68.1403 29.048 68.6203 29.456 68.9563 29.952C 69.3083 30.464 69.5403 31.024 69.6523 31.632C 69.7643 32.24 69.7723 32.832 69.6763 33.408C 69.6763 33.552 69.6203 33.672 69.5083 33.768C 69.3963 33.848 69.2763 33.888 69.1483 33.888L 61.5403 33.84C 61.4283 33.84 61.3483 33.864 61.3003 33.912C 61.2523 33.96 61.2363 34.056 61.2523 34.2ZM 85.6029 39.072C 86.0829 39.072 86.5469 39.008 86.9949 38.88C 87.4429 38.736 87.8589 38.512 88.2429 38.208C 88.2909 38.16 88.3309 38.12 88.3629 38.088C 88.3949 38.056 88.4269 38.008 88.4589 37.944C 88.4749 37.896 88.4909 37.824 88.5069 37.728C 88.5229 37.632 88.5309 37.504 88.5309 37.344L 88.5309 31.56C 88.5309 31.32 88.4509 31.064 88.2909 30.792C 88.1309 30.52 87.9069 30.272 87.6189 30.048C 87.3309 29.824 86.9789 29.64 86.5629 29.496C 86.1469 29.336 85.6829 29.256 85.1709 29.256C 84.5949 29.256 84.0749 29.392 83.6109 29.664C 83.1629 29.92 82.7789 30.264 82.4589 30.696C 82.1389 31.128 81.8909 31.632 81.7149 32.208C 81.5549 32.784 81.4749 33.384 81.4749 34.008C 81.4749 35.608 81.8589 36.856 82.6269 37.752C 83.4109 38.632 84.4029 39.072 85.6029 39.072ZM 88.3629 39.408C 88.3629 39.264 88.3309 39.184 88.2669 39.168C 88.2029 39.152 88.0989 39.192 87.9549 39.288C 87.4909 39.624 86.9549 39.904 86.3469 40.128C 85.7549 40.368 85.1149 40.488 84.4269 40.488C 83.7069 40.488 83.0429 40.336 82.4349 40.032C 81.8269 39.744 81.2989 39.336 80.8509 38.808C 80.4189 38.28 80.0749 37.656 79.8189 36.936C 79.5789 36.216 79.4589 35.432 79.4589 34.584C 79.4589 33.624 79.6269 32.76 79.9629 31.992C 80.3149 31.224 80.7789 30.56 81.3549 30C 81.9149 29.456 82.5469 29.04 83.2509 28.752C 83.9709 28.448 84.6989 28.296 85.4349 28.296C 85.9149 28.296 86.4029 28.344 86.8989 28.44C 87.3949 28.52 87.8189 28.616 88.1709 28.728C 88.2189 28.744 88.2589 28.76 88.2909 28.776C 88.3229 28.792 88.3469 28.792 88.3629 28.776C 88.3789 28.776 88.3949 28.76 88.4109 28.728C 88.4269 28.68 88.4349 28.592 88.4349 28.464L 88.4349 23.544C 88.4349 23.256 88.3149 23.064 88.0749 22.968C 87.8509 22.856 87.5869 22.768 87.2829 22.704C 87.1549 22.688 87.0509 22.664 86.9709 22.632C 86.9069 22.584 86.8749 22.488 86.8749 22.344C 86.8749 22.232 86.8989 22.16 86.9469 22.128C 86.9949 22.08 87.0909 22.032 87.2349 21.984C 87.6669 21.888 88.0989 21.76 88.5309 21.6C 88.9629 21.424 89.3869 21.216 89.8029 20.976C 89.9469 20.88 90.0749 20.856 90.1869 20.904C 90.2989 20.952 90.3549 21.072 90.3549 21.264C 90.3069 21.664 90.2749 22.112 90.2589 22.608C 90.2589 23.088 90.2589 23.448 90.2589 23.688L 90.2589 37.968C 90.2589 38.208 90.2749 38.392 90.3069 38.52C 90.3549 38.648 90.4509 38.752 90.5949 38.832C 90.7389 38.912 90.9069 38.968 91.0989 39C 91.3069 39.016 91.5309 39 91.7709 38.952C 91.8669 38.952 91.9469 38.96 92.0109 38.976C 92.0909 38.992 92.1469 39.048 92.1789 39.144C 92.1949 39.24 92.1949 39.328 92.1789 39.408C 92.1789 39.504 92.1149 39.568 91.9869 39.6C 91.4429 39.744 90.9149 39.888 90.4029 40.032C 89.8909 40.176 89.3789 40.336 88.8669 40.512C 88.6909 40.576 88.5629 40.584 88.4829 40.536C 88.4029 40.488 88.3629 40.376 88.3629 40.2L 88.3629 39.408ZM 96.9981 31.992L 96.9981 38.304C 96.9981 38.608 97.0301 38.84 97.0941 39C 97.1741 39.16 97.3101 39.264 97.5021 39.312C 97.6781 39.376 97.8781 39.424 98.1021 39.456C 98.3421 39.504 98.5661 39.536 98.7741 39.552C 98.9021 39.568 98.9901 39.6 99.0381 39.648C 99.1021 39.712 99.1341 39.824 99.1341 39.984C 99.1341 40.144 99.0941 40.24 99.0141 40.272C 98.9341 40.32 98.8381 40.344 98.7261 40.344C 98.6621 40.344 98.5021 40.344 98.2461 40.344C 98.0061 40.344 97.7421 40.336 97.4541 40.32C 97.1501 40.32 96.8621 40.312 96.5901 40.296C 96.3341 40.296 96.1581 40.296 96.0621 40.296C 95.9661 40.296 95.7981 40.296 95.5581 40.296C 95.3181 40.312 95.0621 40.32 94.7901 40.32C 94.5341 40.336 94.2941 40.344 94.0701 40.344C 93.8461 40.344 93.7101 40.344 93.6621 40.344C 93.5341 40.344 93.4301 40.32 93.3501 40.272C 93.2701 40.24 93.2301 40.144 93.2301 39.984C 93.2301 39.824 93.2541 39.712 93.3021 39.648C 93.3661 39.6 93.4701 39.568 93.6141 39.552C 93.7741 39.552 93.9581 39.528 94.1661 39.48C 94.3901 39.448 94.5821 39.4 94.7421 39.336C 94.9021 39.288 95.0141 39.176 95.0781 39C 95.1421 38.824 95.1741 38.584 95.1741 38.28L 95.1741 31.128C 95.1741 30.984 95.1421 30.864 95.0781 30.768C 95.0141 30.672 94.9261 30.592 94.8141 30.528C 94.7181 30.464 94.5981 30.416 94.4541 30.384C 94.3101 30.352 94.1661 30.312 94.0221 30.264C 93.9581 30.264 93.9021 30.264 93.8541 30.264C 93.8061 30.248 93.7581 30.224 93.7101 30.192C 93.6781 30.176 93.6541 30.152 93.6381 30.12C 93.6221 30.072 93.6141 30.008 93.6141 29.928C 93.6141 29.784 93.6381 29.696 93.6861 29.664C 93.7341 29.616 93.8301 29.576 93.9741 29.544C 94.4381 29.448 94.8861 29.32 95.3181 29.16C 95.7501 29 96.1741 28.8 96.5901 28.56C 96.7341 28.464 96.8701 28.44 96.9981 28.488C 97.1261 28.536 97.1821 28.656 97.1661 28.848C 97.1501 28.944 97.1341 29.032 97.1181 29.112C 97.1181 29.192 97.1181 29.28 97.1181 29.376C 97.1181 29.456 97.1101 29.536 97.0941 29.616C 97.0941 29.696 97.0941 29.784 97.0941 29.88C 97.0941 30.008 97.1261 30.072 97.1901 30.072C 97.2541 30.072 97.3501 30.024 97.4781 29.928C 97.8141 29.64 98.2541 29.328 98.7981 28.992C 99.3421 28.64 99.9021 28.464 100.478 28.464C 100.894 28.464 101.238 28.592 101.51 28.848C 101.798 29.104 101.942 29.416 101.942 29.784C 101.942 30.136 101.806 30.448 101.534 30.72C 101.262 30.976 100.918 31.104 100.502 31.104C 100.31 31.104 100.134 31.072 99.9741 31.008C 99.8141 30.944 99.6781 30.864 99.5661 30.768C 99.3901 30.64 99.1981 30.544 98.9901 30.48C 98.7981 30.416 98.5821 30.384 98.3421 30.384C 97.8781 30.448 97.5341 30.64 97.3101 30.96C 97.1021 31.264 96.9981 31.608 96.9981 31.992ZM 105.527 32.472C 105.527 32.6 105.551 32.688 105.599 32.736C 105.647 32.784 105.735 32.808 105.863 32.808C 106.247 32.808 106.687 32.808 107.183 32.808C 107.695 32.808 108.207 32.808 108.719 32.808C 109.215 32.792 109.687 32.784 110.135 32.784C 110.583 32.768 110.951 32.744 111.239 32.712C 111.591 32.68 111.807 32.56 111.887 32.352C 111.967 32.128 112.007 31.952 112.007 31.824C 112.007 31.136 111.767 30.56 111.287 30.096C 110.823 29.616 110.151 29.376 109.271 29.376C 108.695 29.376 108.167 29.472 107.687 29.664C 107.223 29.856 106.831 30.104 106.511 30.408C 106.191 30.712 105.943 31.048 105.767 31.416C 105.591 31.784 105.511 32.136 105.527 32.472ZM 105.455 34.2C 105.519 35.096 105.687 35.84 105.959 36.432C 106.231 37.008 106.575 37.472 106.991 37.824C 107.423 38.176 107.911 38.424 108.455 38.568C 108.999 38.712 109.575 38.784 110.183 38.784C 110.951 38.784 111.591 38.664 112.103 38.424C 112.615 38.184 113.047 37.864 113.399 37.464C 113.463 37.352 113.527 37.28 113.591 37.248C 113.655 37.2 113.711 37.184 113.759 37.2C 113.807 37.248 113.839 37.312 113.855 37.392C 113.887 37.472 113.879 37.568 113.831 37.68C 113.511 38.384 112.927 39.016 112.079 39.576C 111.231 40.136 110.215 40.416 109.031 40.416C 108.215 40.416 107.463 40.272 106.775 39.984C 106.087 39.712 105.487 39.32 104.975 38.808C 104.463 38.28 104.063 37.656 103.775 36.936C 103.487 36.216 103.343 35.416 103.343 34.536C 103.343 33.512 103.519 32.608 103.871 31.824C 104.239 31.04 104.711 30.376 105.287 29.832C 105.863 29.304 106.511 28.904 107.231 28.632C 107.967 28.36 108.703 28.224 109.439 28.224C 110.351 28.224 111.111 28.392 111.719 28.728C 112.343 29.048 112.823 29.456 113.159 29.952C 113.511 30.464 113.743 31.024 113.855 31.632C 113.967 32.24 113.975 32.832 113.879 33.408C 113.879 33.552 113.823 33.672 113.711 33.768C 113.599 33.848 113.479 33.888 113.351 33.888L 105.743 33.84C 105.631 33.84 105.551 33.864 105.503 33.912C 105.455 33.96 105.439 34.056 105.455 34.2ZM 120.485 39.144C 121.077 39.144 121.645 38.976 122.189 38.64C 122.733 38.288 123.149 37.984 123.437 37.728C 123.565 37.632 123.645 37.536 123.677 37.44C 123.725 37.344 123.749 37.2 123.749 37.008L 123.749 34.68C 123.749 34.456 123.693 34.312 123.581 34.248C 123.469 34.168 123.309 34.152 123.101 34.2C 122.813 34.312 122.493 34.44 122.141 34.584C 121.789 34.728 121.437 34.88 121.085 35.04C 120.733 35.216 120.397 35.392 120.077 35.568C 119.773 35.744 119.517 35.912 119.309 36.072C 119.117 36.216 118.973 36.424 118.877 36.696C 118.781 36.968 118.733 37.256 118.733 37.56C 118.733 38.088 118.877 38.488 119.165 38.76C 119.453 39.016 119.893 39.144 120.485 39.144ZM 125.693 30.768L 125.693 37.344C 125.693 37.792 125.749 38.152 125.861 38.424C 125.973 38.68 126.261 38.808 126.725 38.808C 126.917 38.808 127.085 38.752 127.229 38.64C 127.373 38.512 127.469 38.392 127.517 38.28C 127.613 38.104 127.717 38.056 127.829 38.136C 127.957 38.2 127.997 38.36 127.949 38.616C 127.853 39.048 127.605 39.472 127.205 39.888C 126.821 40.32 126.325 40.536 125.717 40.536C 125.141 40.536 124.717 40.352 124.445 39.984C 124.173 39.632 124.005 39.256 123.941 38.856C 123.893 38.712 123.845 38.624 123.797 38.592C 123.749 38.544 123.661 38.584 123.533 38.712C 123.261 38.904 122.957 39.112 122.621 39.336C 122.301 39.56 121.957 39.776 121.589 39.984C 121.205 40.176 120.797 40.336 120.365 40.464C 119.949 40.592 119.517 40.656 119.069 40.656C 118.237 40.656 117.597 40.432 117.149 39.984C 116.701 39.552 116.477 38.968 116.477 38.232C 116.477 37.688 116.597 37.2 116.837 36.768C 117.093 36.32 117.429 35.952 117.845 35.664C 118.133 35.472 118.493 35.272 118.925 35.064C 119.357 34.856 119.829 34.648 120.341 34.44C 120.853 34.248 121.373 34.056 121.901 33.864C 122.445 33.656 122.957 33.464 123.437 33.288C 123.565 33.24 123.645 33.152 123.677 33.024C 123.725 32.896 123.749 32.712 123.749 32.472L 123.749 31.104C 123.749 30.464 123.549 30.008 123.149 29.736C 122.765 29.464 122.237 29.328 121.565 29.328C 120.621 29.328 119.941 29.576 119.525 30.072C 119.109 30.552 118.901 31.056 118.901 31.584C 118.949 31.92 118.869 32.16 118.661 32.304C 118.453 32.448 118.173 32.568 117.821 32.664C 117.437 32.776 117.149 32.792 116.957 32.712C 116.765 32.632 116.669 32.48 116.669 32.256C 116.653 31.92 116.701 31.568 116.813 31.2C 116.925 30.816 117.109 30.496 117.365 30.24C 117.973 29.632 118.781 29.152 119.789 28.8C 120.813 28.448 121.845 28.272 122.885 28.272C 123.829 28.272 124.533 28.496 124.997 28.944C 125.461 29.376 125.693 29.984 125.693 30.768ZM 140.18 31.56C 140.148 31.656 140.132 31.744 140.132 31.824C 140.132 31.888 140.132 31.952 140.132 32.016L 140.18 38.304C 140.18 38.608 140.212 38.848 140.276 39.024C 140.356 39.2 140.468 39.312 140.612 39.36C 140.756 39.424 140.908 39.472 141.068 39.504C 141.244 39.536 141.42 39.552 141.596 39.552C 141.724 39.568 141.82 39.6 141.884 39.648C 141.948 39.712 141.98 39.824 141.98 39.984C 141.98 40.144 141.932 40.24 141.836 40.272C 141.756 40.32 141.66 40.344 141.548 40.344C 141.5 40.344 141.364 40.344 141.14 40.344C 140.932 40.344 140.7 40.336 140.444 40.32C 140.204 40.32 139.964 40.312 139.724 40.296C 139.5 40.296 139.348 40.296 139.268 40.296C 139.172 40.296 139.004 40.296 138.764 40.296C 138.54 40.312 138.3 40.32 138.044 40.32C 137.788 40.336 137.556 40.344 137.348 40.344C 137.14 40.344 137.012 40.344 136.964 40.344C 136.836 40.344 136.732 40.32 136.652 40.272C 136.588 40.24 136.556 40.144 136.556 39.984C 136.556 39.824 136.58 39.712 136.628 39.648C 136.676 39.6 136.772 39.568 136.916 39.552C 137.108 39.552 137.268 39.536 137.396 39.504C 137.524 39.472 137.684 39.424 137.876 39.36C 138.036 39.312 138.156 39.2 138.236 39.024C 138.316 38.848 138.356 38.608 138.356 38.304L 138.356 32.64C 138.356 31.6 138.14 30.848 137.708 30.384C 137.292 29.92 136.612 29.688 135.668 29.688C 134.996 29.688 134.42 29.88 133.94 30.264C 133.46 30.632 133.076 31.104 132.788 31.68C 132.74 31.776 132.708 31.872 132.692 31.968C 132.692 32.064 132.692 32.176 132.692 32.304L 132.692 38.304C 132.692 38.608 132.732 38.848 132.812 39.024C 132.892 39.2 133.028 39.312 133.22 39.36C 133.38 39.424 133.532 39.472 133.676 39.504C 133.836 39.536 134.02 39.552 134.228 39.552C 134.356 39.568 134.444 39.6 134.492 39.648C 134.556 39.712 134.588 39.824 134.588 39.984C 134.588 40.144 134.548 40.24 134.468 40.272C 134.388 40.32 134.292 40.344 134.18 40.344C 134.116 40.344 133.972 40.344 133.748 40.344C 133.524 40.344 133.284 40.336 133.028 40.32C 132.756 40.32 132.5 40.312 132.26 40.296C 132.02 40.296 131.852 40.296 131.756 40.296C 131.66 40.296 131.492 40.296 131.252 40.296C 131.028 40.312 130.788 40.32 130.532 40.32C 130.276 40.336 130.036 40.344 129.812 40.344C 129.604 40.344 129.476 40.344 129.428 40.344C 129.3 40.344 129.196 40.32 129.116 40.272C 129.036 40.24 128.996 40.144 128.996 39.984C 128.996 39.824 129.02 39.712 129.068 39.648C 129.132 39.6 129.236 39.568 129.38 39.552C 129.54 39.552 129.716 39.536 129.908 39.504C 130.1 39.472 130.276 39.424 130.436 39.36C 130.596 39.312 130.716 39.2 130.796 39.024C 130.876 38.848 130.916 38.608 130.916 38.304L 130.916 31.2C 130.916 30.896 130.788 30.696 130.532 30.6C 130.292 30.488 130.02 30.4 129.716 30.336C 129.652 30.336 129.596 30.328 129.548 30.312C 129.5 30.296 129.452 30.28 129.404 30.264C 129.372 30.232 129.348 30.2 129.332 30.168C 129.316 30.136 129.308 30.08 129.308 30C 129.308 29.856 129.332 29.768 129.38 29.736C 129.428 29.688 129.524 29.64 129.668 29.592C 130.132 29.496 130.572 29.376 130.988 29.232C 131.42 29.072 131.844 28.872 132.26 28.632C 132.404 28.536 132.54 28.512 132.668 28.56C 132.796 28.608 132.852 28.728 132.836 28.92C 132.804 29.112 132.78 29.296 132.764 29.472C 132.764 29.648 132.764 29.808 132.764 29.952C 132.764 30.08 132.804 30.152 132.884 30.168C 132.964 30.168 133.036 30.136 133.1 30.072C 133.452 29.608 133.9 29.2 134.444 28.848C 135.004 28.48 135.668 28.296 136.436 28.296C 137.252 28.296 137.932 28.448 138.476 28.752C 139.036 29.056 139.468 29.496 139.772 30.072C 139.82 30.184 139.892 30.24 139.988 30.24C 140.084 30.24 140.172 30.192 140.252 30.096C 140.62 29.616 141.1 29.2 141.692 28.848C 142.3 28.48 142.988 28.296 143.756 28.296C 144.94 28.296 145.86 28.616 146.516 29.256C 147.188 29.896 147.524 30.816 147.524 32.016L 147.524 38.304C 147.524 38.608 147.556 38.848 147.62 39.024C 147.684 39.2 147.804 39.312 147.98 39.36C 148.124 39.424 148.268 39.472 148.412 39.504C 148.556 39.536 148.716 39.552 148.892 39.552C 149.02 39.568 149.116 39.6 149.18 39.648C 149.244 39.712 149.276 39.824 149.276 39.984C 149.276 40.144 149.228 40.24 149.132 40.272C 149.052 40.32 148.956 40.344 148.844 40.344C 148.796 40.344 148.668 40.344 148.46 40.344C 148.252 40.344 148.028 40.336 147.788 40.32C 147.548 40.32 147.316 40.312 147.092 40.296C 146.868 40.296 146.716 40.296 146.636 40.296C 146.54 40.296 146.372 40.296 146.132 40.296C 145.908 40.312 145.668 40.32 145.412 40.32C 145.156 40.336 144.924 40.344 144.716 40.344C 144.508 40.344 144.38 40.344 144.332 40.344C 144.204 40.344 144.1 40.32 144.02 40.272C 143.956 40.24 143.924 40.144 143.924 39.984C 143.924 39.824 143.948 39.712 143.996 39.648C 144.044 39.6 144.14 39.568 144.284 39.552C 144.476 39.552 144.628 39.536 144.74 39.504C 144.868 39.472 145.028 39.424 145.22 39.36C 145.396 39.312 145.524 39.2 145.604 39.024C 145.684 38.848 145.724 38.608 145.724 38.304L 145.724 32.64C 145.724 31.6 145.5 30.848 145.052 30.384C 144.62 29.92 143.924 29.688 142.964 29.688C 142.324 29.688 141.764 29.872 141.284 30.24C 140.82 30.592 140.452 31.032 140.18 31.56ZM 155.213 39.312C 155.981 39.312 156.589 39.16 157.037 38.856C 157.501 38.536 157.733 38.144 157.733 37.68C 157.733 37.344 157.645 37.048 157.469 36.792C 157.293 36.536 157.061 36.304 156.773 36.096C 156.501 35.872 156.181 35.672 155.813 35.496C 155.445 35.32 155.069 35.136 154.685 34.944C 153.645 34.48 152.845 34.032 152.285 33.6C 151.725 33.152 151.445 32.48 151.445 31.584C 151.445 30.704 151.789 29.944 152.477 29.304C 153.165 28.648 154.253 28.32 155.741 28.32C 156.301 28.336 156.789 28.392 157.205 28.488C 157.637 28.584 158.093 28.704 158.573 28.848C 158.621 28.896 158.669 28.944 158.717 28.992C 158.781 29.024 158.829 29.072 158.861 29.136C 158.941 29.52 158.997 29.912 159.029 30.312C 159.061 30.696 159.093 31.08 159.125 31.464C 159.125 31.592 159.093 31.68 159.029 31.728C 158.981 31.776 158.909 31.8 158.813 31.8C 158.669 31.832 158.565 31.832 158.501 31.8C 158.437 31.752 158.405 31.664 158.405 31.536C 158.341 31.312 158.229 31.048 158.069 30.744C 157.909 30.424 157.733 30.152 157.541 29.928C 157.349 29.72 157.061 29.576 156.677 29.496C 156.309 29.4 155.909 29.352 155.477 29.352C 154.709 29.352 154.101 29.512 153.653 29.832C 153.205 30.136 153.005 30.528 153.053 31.008C 153.053 31.328 153.125 31.592 153.269 31.8C 153.429 32.008 153.653 32.2 153.941 32.376C 154.213 32.536 154.533 32.696 154.901 32.856C 155.285 33 155.693 33.176 156.125 33.384C 156.509 33.576 156.901 33.776 157.301 33.984C 157.701 34.192 158.053 34.432 158.357 34.704C 158.677 34.96 158.933 35.264 159.125 35.616C 159.333 35.952 159.437 36.336 159.437 36.768C 159.437 37.952 159.029 38.856 158.213 39.48C 157.413 40.104 156.317 40.416 154.925 40.416C 154.301 40.416 153.693 40.32 153.101 40.128C 152.525 39.952 152.021 39.768 151.589 39.576C 151.525 39.544 151.461 39.496 151.397 39.432C 151.349 39.384 151.325 39.328 151.325 39.264C 151.229 38.912 151.149 38.504 151.085 38.04C 151.037 37.576 151.013 37.152 151.013 36.768C 151.013 36.72 151.013 36.68 151.013 36.648C 151.013 36.616 151.013 36.584 151.013 36.552C 151.029 36.52 151.053 36.496 151.085 36.48C 151.117 36.464 151.173 36.44 151.253 36.408C 151.365 36.392 151.461 36.4 151.541 36.432C 151.621 36.464 151.677 36.536 151.709 36.648C 151.789 36.936 151.901 37.24 152.045 37.56C 152.205 37.864 152.365 38.144 152.525 38.4C 152.669 38.64 152.965 38.848 153.413 39.024C 153.861 39.216 154.461 39.312 155.213 39.312Z"/>
<path id="path1_fill" d="M 3.13705 288.299C 1.78703 284.874 1.91261 259.282 2.10099 251.063C -1.82351 253.927 0.0916471 206.106 5.02081 180.576C 11.4477 148.674 21.5393 117.608 35.0981 87.9841C 41.7855 87.0812 115.032 119.429 137.826 130.139C 140.651 127.337 188.373 135.432 221.339 144.772C 237.037 149.131 251.793 153.178 254.305 153.801C 257.758 154.424 258.7 158.471 258.072 169.991C 257.444 178.397 255.56 186.491 253.991 188.048C 250.223 192.096 256.188 196.766 260.27 196.766C 259.328 193.652 267.491 192.407 295.119 191.162C 342.213 189.293 378.319 190.539 377.377 187.114C 364.504 189.978 357.597 189.418 354.458 184.25C 346.209 183.536 337.935 183.142 329.655 183.067C 273.142 184.935 265.293 184.312 265.921 178.397C 267.177 170.925 267.491 160.028 266.863 143.838C 266.549 133.253 265.293 130.762 261.84 132.007C 259.328 132.941 257.444 131.696 257.444 129.205C 257.444 127.026 254.933 124.847 252.107 124.847C 248.967 124.847 239.863 123.913 231.7 122.667C 216.943 120.488 212.862 117.374 220.711 113.95C 223.537 112.393 223.537 111.77 220.711 110.214C 217.571 108.968 217.571 107.1 221.339 101.808C 223.851 98.0715 226.048 93.7127 226.048 91.8447C 226.048 90.288 222.595 94.0241 218.199 100.251C 213.49 107.412 211.292 113.638 212.548 117.063C 214.118 121.11 213.49 121.733 210.036 119.554C 207.525 118.308 203.757 116.752 201.559 116.44C 190.885 114.572 188.059 112.082 189.943 105.232C 191.513 99.6282 191.199 99.0055 188.687 102.742C 185.861 106.789 185.234 106.478 184.92 101.185C 184.606 97.7601 184.606 94.0241 184.92 92.7787C 184.92 91.222 183.036 90.288 180.21 90.288C 176.129 90.288 175.815 91.222 178.954 94.9581C 180.838 97.4488 181.78 100.562 180.838 102.43C 179.896 103.987 180.838 106.166 182.722 106.789C 188.687 109.28 179.268 115.195 172.989 113.016C 149.128 105.544 143.791 98.3828 153.838 87.1746C 161.059 78.7685 162.315 79.3912 162.628 90.5993C 162.628 95.8921 163.884 101.185 165.14 102.43C 166.396 103.364 166.396 100.562 165.768 95.8921C 164.198 87.7973 164.826 87.1746 175.501 86.8633C 183.664 86.552 184.606 85.9293 178.954 84.9953C 174.559 84.3726 167.966 82.1932 164.198 80.3252C 160.117 78.4572 156.663 77.5232 156.035 78.1458C 155.407 78.7685 152.268 82.8159 149.128 87.1746C 145.675 92.156 144.419 92.7787 145.675 89.354C 146.617 86.2406 147.558 80.6365 147.558 77.5232C 147.558 73.7871 148.814 72.2304 151.012 73.4758C 153.524 74.7211 153.838 73.1644 151.954 68.183C 150.698 64.1356 150.07 58.8429 150.07 56.9748C 150.384 54.7955 151.012 51.0594 151.326 48.5687C 151.64 44.5213 160.745 44.21 172.361 48.2574C 174.559 49.1914 187.431 50.7481 200.618 51.6821C 213.804 52.6161 226.676 55.4182 229.188 57.5975C 237.037 64.447 250.537 65.6923 252.107 59.7769C 253.049 55.4182 253.991 56.0408 256.502 61.9563C 259.014 68.4944 259.956 68.8057 261.526 64.1356C 264.351 56.9748 270.003 60.7109 270.003 69.4284C 270.003 78.7685 259.642 110.214 254.933 116.129C 251.479 120.176 251.793 121.11 257.758 122.979C 266.235 125.781 270.003 120.488 270.003 105.232C 270.003 99.0055 272.2 91.5334 275.026 89.0427C 277.538 86.2406 278.48 84.0613 276.91 84.0613C 275.026 84.0613 274.398 81.2592 275.34 78.1458C 276.282 75.0325 275.34 69.4284 273.456 65.6923C 270.317 60.3996 270.631 59.1542 274.712 59.1542C 277.538 59.1542 279.107 60.3996 277.852 61.9563C 276.91 63.8243 279.107 66.6263 282.561 68.4944C 286.015 70.3624 288.84 70.9851 288.84 70.051C 288.84 69.117 290.724 70.051 293.236 72.2304C 295.433 74.4098 296.689 78.1458 295.747 80.3252C 294.491 83.7499 293.864 83.7499 291.666 80.3252C 289.468 77.2118 288.84 77.5232 288.84 81.8819C 288.84 87.7973 297.003 89.0427 299.201 83.4386C 300.143 80.6365 302.654 82.1932 307.05 87.1746C 313.015 94.3354 313.643 94.3354 313.957 88.7313C 313.957 83.1272 314.271 83.1272 318.98 87.7973C 321.806 90.5993 324.632 97.4488 325.26 103.364C 325.887 109.902 325.573 112.082 323.69 109.591C 321.492 106.166 320.864 106.166 319.294 109.902C 318.038 113.638 319.294 114.261 324.946 113.327C 334.678 111.77 337.818 117.063 329.655 121.422C 324.946 123.913 323.376 123.913 323.062 120.799C 323.062 117.686 322.434 117.686 321.178 120.799C 318.98 126.403 314.899 125.469 313.015 118.308C 312.073 114.261 309.562 112.704 306.736 113.95C 301.085 115.818 303.282 124.847 308.62 123.601C 310.817 123.29 312.073 124.535 311.759 126.403C 311.131 130.451 319.608 129.828 328.713 125.158C 334.678 122.044 335.934 122.356 337.818 128.271C 338.76 132.007 341.899 136.989 344.411 139.479C 346.923 141.97 348.179 146.018 347.237 148.508C 346.295 150.999 346.609 155.358 348.493 158.471C 350.062 161.584 351.632 169.057 352.26 175.283C 352.238 178.406 352.993 181.486 354.458 184.25C 365.98 185.122 377.063 186.305 377.377 187.114C 393.703 183.378 407.831 171.547 407.831 161.273C 408.145 156.603 410.343 151.622 413.168 150.065C 415.994 148.508 418.819 141.347 419.761 133.564C 420.703 126.092 423.529 117.374 426.354 114.572C 428.866 111.459 430.122 107.1 429.18 104.921C 428.238 102.43 429.18 98.6941 431.064 96.8261C 432.948 94.9581 433.262 93.4014 431.692 93.4014C 430.436 93.4014 431.378 90.9107 434.203 87.7973C 438.599 83.1272 443.308 62.8903 443.308 49.1914C 442.994 46.3894 445.82 43.5873 449.274 42.6533C 453.355 41.408 454.611 39.5399 453.041 35.4925C 451.471 31.4451 452.099 30.8225 455.239 32.6905C 458.064 34.5585 458.692 33.9358 456.809 31.1338C 453.669 26.1524 460.576 21.7937 471.565 21.7937C 476.274 21.7937 481.925 19.6143 484.751 17.1236C 487.263 14.6329 491.658 12.4535 494.17 12.4535C 496.995 12.4535 499.193 11.2082 499.193 9.34014C 499.193 7.78345 501.391 6.22676 503.902 6.22676C 506.414 6.22676 508.612 4.98141 508.612 3.11338C 508.612 1.55669 510.182 0 512.065 0C 514.263 0 514.891 6.5381 513.949 18.6803C 513.321 28.9544 513.949 37.3606 515.205 37.3606C 516.775 37.3606 518.031 39.8513 518.031 42.9646C 518.031 47.012 517.403 47.3234 515.205 43.8987C 513.635 41.408 511.751 41.0966 510.496 42.9646C 509.554 44.5213 510.496 46.7007 513.007 47.6347C 520.228 50.4368 522.112 65.381 515.833 70.3624C 512.379 73.1644 511.751 74.4098 514.577 74.0984C 516.775 73.4758 519.6 75.0325 520.228 77.2118C 521.17 79.0798 520.542 80.9479 518.973 80.9479C 516.147 80.9479 516.461 103.676 519.6 108.657C 520.542 110.525 520.228 112.082 518.345 112.082C 516.461 112.082 516.461 115.506 518.345 122.044C 522.112 135.121 521.798 139.791 518.031 133.875C 515.833 130.451 515.519 132.007 516.147 139.168C 517.089 144.772 520.542 152.244 523.996 155.98C 527.763 160.028 530.903 164.698 530.903 166.254C 531.217 168.123 531.845 174.349 532.473 179.642C 533.415 186.491 532.473 189.605 529.647 188.982C 524.624 188.048 519.914 176.217 523.996 174.972C 525.88 174.349 527.449 172.481 527.449 170.925C 527.449 169.057 525.88 168.745 523.682 169.991C 521.798 171.236 521.17 170.925 522.112 169.057C 523.368 167.188 520.542 161.896 516.147 157.226C 509.24 149.754 507.67 149.131 502.961 153.49C 500.135 155.98 495.112 158.16 492.286 158.471C 478.786 159.405 476.902 160.028 478.472 164.075C 479.414 166.254 479.1 168.123 477.844 168.123C 476.588 168.123 475.646 173.104 475.646 179.019C 475.646 184.935 476.902 189.916 478.472 189.916C 480.042 189.916 479.414 192.096 477.216 194.586C 474.076 198.322 474.076 199.256 477.216 199.256C 480.042 199.256 479.728 201.124 475.96 205.172C 471.251 210.153 471.251 211.398 475.646 214.823C 478.158 217.003 479.414 219.805 478.472 221.361C 477.53 222.918 478.786 224.163 480.983 224.163C 483.495 224.163 486.949 228.522 488.832 233.815C 492.6 243.778 491.658 250.627 486.635 247.514C 485.379 246.58 484.123 254.986 483.809 266.194C 483.809 280.204 484.751 286.431 487.577 286.742C 489.46 287.054 493.228 287.365 495.426 287.676C 497.623 287.676 500.449 289.856 502.019 292.035C 504.216 295.46 504.844 295.46 506.414 291.412C 507.67 288.61 506.728 286.431 504.844 286.431C 500.135 286.431 504.216 250.004 510.496 234.749C 517.403 218.871 518.031 190.539 511.751 186.803C 509.24 185.246 508.612 183.689 510.81 183.689C 515.205 183.689 512.379 171.547 506.1 164.075C 503.589 161.273 502.333 157.848 503.589 156.292C 507.042 153.178 518.659 168.123 516.775 173.104C 515.833 175.283 517.403 181.51 520.228 187.114C 524.624 195.832 524.624 198.945 520.228 219.182C 517.717 231.324 513.635 246.891 511.438 253.74C 508.926 262.147 508.612 270.553 510.182 278.647L 513.007 291.101L 514.891 271.798C 516.147 261.213 518.659 250.316 520.856 247.825C 523.054 245.334 525.252 238.796 525.88 233.192C 528.077 216.691 529.647 219.805 530.275 241.91C 530.589 253.74 530.903 264.637 530.903 266.194C 531.217 269.307 529.333 282.072 525.566 299.507C 524.624 303.866 525.566 308.536 527.135 309.781C 529.333 311.027 530.589 308.847 530.589 304.489C 530.903 297.639 531.217 297.639 535.612 306.045C 539.38 313.206 541.264 314.14 545.031 311.027C 548.485 308.225 550.368 308.225 554.136 311.338C 556.648 313.206 560.101 314.14 561.985 312.895C 563.555 311.961 566.694 314.763 568.264 319.121C 569.834 323.48 572.66 326.594 574.229 325.66C 575.799 324.414 579.567 326.282 582.706 329.084C 585.846 332.198 588.672 334.377 589.299 334.066C 590.869 332.509 602.486 344.962 600.916 346.519C 600.288 347.142 601.858 347.765 604.37 347.765C 606.881 347.765 607.823 346.208 606.881 344.34C 605.625 342.472 607.823 343.717 611.591 346.831C 615.358 350.255 618.498 351.501 618.812 349.944C 618.812 348.387 620.068 350.255 621.637 354.303C 623.521 358.973 627.289 361.152 632.626 361.152C 637.963 361.152 640.475 362.709 640.475 366.756C 640.475 370.804 641.103 371.115 643.3 367.69C 645.498 364.265 646.754 364.577 649.58 369.247C 652.091 373.917 653.033 373.917 653.033 370.492C 653.347 367.379 654.289 367.69 656.173 372.049C 657.743 375.474 658.998 376.408 658.998 374.228C 659.312 371.738 662.766 373.294 668.103 378.276C 672.813 382.634 678.464 385.436 680.976 384.502C 684.429 383.257 684.429 383.568 681.604 387.304C 678.464 391.04 678.778 391.663 683.487 391.04C 691.022 389.795 715.825 398.201 715.825 402.249C 715.825 403.805 717.081 404.117 718.965 403.183C 720.535 402.249 725.244 403.183 729.011 405.362C 733.093 407.541 737.174 409.098 738.116 408.787C 739.058 408.475 740 412.834 740 418.127C 740 427.778 739.372 428.09 729.325 427.156C 723.674 426.533 718.965 424.665 718.965 423.42C 718.965 421.863 714.255 419.684 708.918 418.438C 703.267 417.193 697.615 415.636 696.36 415.325C 694.79 415.014 691.65 414.702 688.825 414.391C 686.313 414.391 684.743 412.834 685.685 411.589C 687.883 407.853 668.103 407.853 663.708 411.589C 661.196 413.146 659.312 412.523 658.057 409.098C 656.801 406.296 654.289 404.739 651.149 405.985C 648.638 406.919 647.382 406.607 648.324 404.739C 649.266 402.871 646.754 401.626 642.673 401.626C 638.591 401.626 634.196 400.692 633.254 399.758C 631.998 398.513 626.033 397.267 619.754 396.645C 613.474 396.022 605.625 393.22 602.172 390.106C 598.718 386.993 592.125 385.125 586.788 385.436C 581.451 385.748 577.997 384.814 578.939 383.257C 579.881 381.7 577.997 381.078 574.229 382.012C 570.462 383.257 566.38 382.012 564.497 379.521C 562.613 376.719 562.299 378.587 563.869 386.059C 565.753 395.399 565.439 396.333 561.043 392.909C 557.904 390.106 555.706 389.795 554.136 392.286C 551.31 396.956 555.392 401.937 561.357 401.003C 564.183 400.381 567.008 402.56 567.636 405.985C 568.578 410.966 567.636 411.589 560.729 409.721C 551.31 407.541 550.368 410.032 558.217 416.259C 561.043 418.75 561.671 419.995 559.787 418.75C 557.59 417.816 555.706 417.504 555.706 418.75C 555.706 419.684 559.473 421.863 564.183 423.731C 571.09 426.222 572.032 427.467 568.264 429.958C 564.183 432.76 564.183 432.76 568.264 432.137C 572.974 431.203 585.218 438.675 596.834 449.261C 601.23 450.195 621.637 456.421 621.637 457.978C 621.637 459.535 623.521 460.78 625.719 460.78C 629.486 460.78 647.696 471.366 669.359 485.999C 674.383 489.423 678.464 490.669 679.72 488.801C 680.662 486.933 686.627 492.848 690.08 492.848C 683.801 494.405 682.545 492.537 691.336 501.254C 696.046 506.236 700.127 512.151 700.127 514.953C 700.127 521.491 690.708 525.85 681.29 523.982C 676.894 523.359 670.929 524.604 667.789 526.784C 669.045 522.425 662.766 518.066 658.371 517.755C 654.917 517.444 651.149 515.887 650.208 514.642C 649.266 513.085 645.184 511.528 641.103 511.528C 633.568 510.906 605.939 498.141 605.939 495.027C 605.939 494.093 587.73 489.112 583.962 488.801C 583.962 490.357 576.741 492.848 568.264 494.716C 553.194 497.829 551.938 497.829 543.775 490.046C 539.066 485.687 529.961 479.46 523.368 476.036C 517.089 472.611 509.868 467.318 507.984 463.894C 503.275 456.733 499.193 455.799 499.193 462.026C 499.193 460.469 495.426 460.78 494.798 460.78C 494.17 460.78 491.344 459.846 488.518 458.912C 485.379 457.667 483.495 458.601 483.495 462.026C 483.495 465.139 481.925 466.073 478.158 464.828C 475.018 463.582 473.762 464.205 475.018 466.073C 477.53 470.12 465.285 486.31 461.204 484.131C 459.634 482.885 453.041 420.618 453.041 423.731C 451.785 430.892 449.274 432.137 431.378 435.873C 417.438 438.924 368.994 448.856 359.293 453.619C 358.979 454.055 358.414 454.553 357.597 455.176C 357.44 454.771 358.068 454.242 359.293 453.619C 360.486 452 357.221 452 346.923 452.997C 319.608 455.487 244.258 454.242 241.746 450.817C 240.804 449.883 234.525 448.015 227.618 447.081C 211.292 445.213 176.443 441.477 174.245 441.789C 173.617 441.789 167.024 439.921 159.803 437.43C 152.582 434.628 140.965 432.137 134.372 431.203C 127.465 430.269 119.302 428.09 115.849 426.222C 108.313 422.361 105.739 423.887 108.565 430.176C 109.538 431.203 110.134 432.137 109.883 432.76C 109.35 431.826 108.91 430.954 108.565 430.176C 105.551 426.969 98.518 422.579 97.3249 421.863C 95.4412 420.618 94.1853 421.552 94.1853 423.42C 94.1853 425.599 90.1038 424.665 84.1386 420.929C 77.565 417.151 70.4821 414.32 63.1033 412.523L 63.1347 412.523C 65.458 412.678 25.4596 347.453 26.998 345.274C 28.5678 342.472 27.6259 341.849 24.1723 343.406C 21.3467 344.34 10.3581 322.235 7.53249 319.744C 6.59061 318.81 5.64873 312.583 5.64873 306.357C 5.64873 299.818 4.39289 291.724 3.13705 288.299Z"/>
<path id="path2_fill" d="M 5.82569 0C 7.08153 0 8.33737 7.78345 8.33737 17.1236C 8.33737 30.5111 7.39549 34.2472 3.62798 34.2472C -0.139538 34.2472 -0.767456 32.0678 0.802341 25.8411C 2.05818 21.171 3.00006 13.3875 3.00006 8.71746C 3.00006 3.73606 4.2559 0 5.82569 0Z"/>
<path id="path3_fill" d="M 11.6605 47.4086C 16.9979 50.8333 19.5095 55.1921 19.5095 61.4188C 19.5095 66.0889 18.2537 70.759 16.9979 71.693C 13.5443 73.8723 -0.897841 42.7385 0.0440375 34.6438C 0.357997 31.219 1.29988 22.5016 1.92779 15.0295C 2.55571 7.55735 3.81155 1.01926 4.75343 0.0852419C 6.32323 -1.47145 22.6491 18.7655 22.6491 22.1902C 22.6491 23.4356 20.4514 23.7469 17.9397 22.5016C 12.2885 20.3222 3.81155 28.417 3.81155 36.2005C 3.81155 39.6252 7.26511 44.6066 11.6605 47.4086Z"/>
<path id="path4_fill" d="M 1.69838 0C 3.58213 0 5.15193 1.55669 5.15193 3.11338C 5.15193 4.98141 4.52401 6.22676 3.89609 6.22676C 2.95421 6.22676 1.38442 4.98141 0.442538 3.11338C -0.49934 1.55669 0.128579 0 1.69838 0Z"/>
<path id="path5_fill" d="M 16.2278 5.4481C 15.2859 9.18416 14.658 13.2316 14.658 14.7882C 14.344 17.9016 8.69275 17.5903 6.49504 13.8542C 5.2392 11.9862 3.04148 11.3635 1.47169 12.2975C -0.0981123 13.2316 -0.412072 12.2975 0.529807 9.80683C 1.47169 7.31613 5.55316 3.89141 9.63463 2.02338C 16.8557 -1.09 17.1697 -1.09 16.2278 5.4481Z"/>
<path id="path6_fill" d="M 96.6995 19.0609C 109.258 21.2403 120.246 24.3537 121.502 25.9104C 125.27 31.8258 117.107 33.3825 102.037 29.3351C 81.9434 24.0424 16.3259 12.5229 7.22107 12.5229C 2.19772 12.5229 0 10.6548 0 6.29609C 0 -1.48736 13.5003 -2.11003 30.1401 4.7394C 36.4193 7.23011 42.6985 8.47546 44.2683 7.54144C 45.8381 6.60743 53.0592 7.85278 60.5942 10.3435C 67.8152 13.1455 84.1411 16.8816 96.6995 19.0609Z"/>
<path id="path7_fill" d="M 93.7008 37.3606C 103.747 42.6533 103.747 44.21 96.2125 74.7211C 93.0729 87.486 89.3053 98.3828 87.7355 98.6941C 84.9099 99.3168 41.2695 82.5046 21.4901 73.4758C 16.1528 70.9851 9.55963 68.8057 7.04796 68.8057C 0.454807 68.8057 -2.37083 63.513 2.33856 60.3996C 4.53628 59.1542 9.24567 52.6161 12.6992 46.3894C 19.2924 33.6245 20.5482 32.6905 25.8855 37.9832C 28.7112 40.7853 29.3391 38.6059 28.3972 30.1998C 27.7693 21.4823 28.3972 18.9916 31.5368 20.237C 34.3624 21.171 35.3043 20.237 34.3624 17.7463C 33.4206 15.5669 34.0485 10.8968 35.6183 6.84944L 38.1299 0L 45.665 6.5381C 54.7698 14.0102 81.1424 31.1338 93.7008 37.3606Z"/>
<path id="path8_fill" d="M 3.13959 0C 5.02335 0 6.27919 2.17937 6.27919 4.67007C 6.27919 7.16077 5.02335 9.34014 3.13959 9.34014C 1.5698 9.34014 0 7.16077 0 4.67007C 0 2.17937 1.5698 0 3.13959 0Z"/>
<path id="path9_fill" d="M 1.41904 0.563954C 3.61676 -0.37006 6.44239 -0.058722 7.38427 0.875292C 8.64011 1.80931 6.75635 2.74332 3.3028 2.43198C -0.150756 2.43198 -1.09263 1.49797 1.41904 0.563954Z"/>
<path id="path10_fill" d="M 106.486 15.6817C 110.881 16.3043 114.335 18.795 114.963 21.9084C 115.905 29.3805 113.393 30.3145 102.091 27.2012C 90.474 24.0878 81.3692 22.5311 47.1476 18.1724C 13.8679 13.8136 0.0537137 9.76624 0.0537137 3.85082C 0.0537137 -1.75327 -3.7138 -1.75327 51.857 7.27554C 77.9157 11.3229 102.405 15.059 106.486 15.6817Z"/>
<path id="path11_fill" d="M 64.0397 71.7288C 61.2141 82.6256 59.9582 92.8997 60.9001 94.4564C 65.6095 102.24 52.4232 95.3905 29.8181 78.5782C 16.0039 68.6154 3.75948 60.2093 2.18968 60.2093C -2.83367 60.2093 0.305927 55.2279 16.6318 37.7929C 32.6438 20.358 33.2717 20.0467 36.7252 26.8961C 39.8648 33.1229 39.8648 32.8115 38.609 24.4054C 37.3531 17.2446 38.609 12.8859 44.8882 6.34779C 49.2836 1.67772 53.3651 -1.12433 53.993 0.432365C 54.9349 1.67772 58.3884 13.8199 62.1559 27.2074C 68.7491 50.8691 68.7491 52.7372 64.0397 71.7288Z"/>
<path id="path12_fill" d="M 130.667 88.1087C 129.097 91.222 124.701 113.016 120.62 136.366L 113.713 179.019L 103.038 179.331C 87.0262 180.265 49.351 175.283 28.0018 169.679C 17.6411 167.189 6.96649 165.943 4.14086 166.877C -0.254575 168.745 -0.882494 167.189 1.00126 155.98C 1.94314 148.82 4.76878 137.923 6.96649 131.385C 9.16421 125.158 10.42 117.997 9.79213 116.129C 8.85025 113.95 9.79213 112.082 11.3619 112.082C 12.9317 112.082 15.4434 107.412 16.3853 102.119C 17.3272 96.5148 18.583 89.6653 19.2109 87.1746C 22.6645 69.7397 31.1414 48.5687 34.281 49.8141C 36.7926 50.7481 48.4091 45.4553 56.8861 39.5399C 61.5954 36.4265 68.1886 34.2472 71.6422 35.1812C 75.7236 36.1152 76.9795 35.4925 75.7236 32.3792C 74.7817 29.8884 76.0376 28.0204 79.1772 28.0204C 82.0028 28.0204 84.2005 26.4637 84.2005 24.5957C 84.2005 23.039 85.7703 22.4163 87.3401 23.3504C 89.2239 24.2844 90.4797 23.973 90.4797 22.105C 90.4797 19.303 106.492 14.3215 111.201 15.5669C 112.457 15.8782 114.341 14.9442 115.283 13.3875C 116.224 12.1422 122.504 8.40613 129.097 5.60408L 140.713 0L 140.713 10.2742C 140.713 16.1896 139.771 21.4823 138.829 22.7277C 137.888 23.6617 136.318 37.6719 135.376 53.5501C 134.434 69.4284 132.55 84.9953 130.667 88.1087Z"/>
<path id="path13_fill" d="M 3.13959 0C 5.02335 0 6.27919 1.55669 6.27919 3.11338C 6.27919 4.98141 5.02335 6.22676 3.13959 6.22676C 1.5698 6.22676 0 4.98141 0 3.11338C 0 1.55669 1.5698 0 3.13959 0Z"/>
<path id="path14_fill" d="M 85 38.5C 85 59.763 65.9721 77 42.5 77C 19.0279 77 0 59.763 0 38.5C 0 17.237 19.0279 0 42.5 0C 65.9721 0 85 17.237 85 38.5Z"/>
</defs>
</svg>
